# xmcd
#
# Track frame offsets:
#	165
#	17670
#	37484
#	53950
#	70202
#	85199
#	100818
#	122631
#	138288
#	152356
#	172065
#	191348
#	206416
#
# Disc length: 2969 seconds
#
# Revision: 1
# Processed by: cddbd v1.5.1PL0 Copyright (c) Steve Scherf et al.
# Submitted via: audiograbber 1.82.01
#
DISCID=ae0b970d
DTITLE=Chiquito and Bordoneio - Da Estância Pra Venda
DYEAR=1999
DGENRE=Gaúcho
TTITLE0=Da Estância Pra Venda
TTITLE1=Meu Rio Grande do Sul
TTITLE2=Vanerão do Pião
TTITLE3=Invernías
TTITLE4=Chamamé Pra Ti
TTITLE5=O Rancho da Negra Minga
TTITLE6=Teia de Luz
TTITLE7=Fandango na Fronteira
TTITLE8=Nascidos Pra Lua
TTITLE9=Relíquia do Meu Avô
TTITLE10=Rodeio de Taura
TTITLE11=Surungo, China e Canha
TTITLE12=Pai dos Fogos
EXTD=
EXTT0=
EXTT1=
EXTT2=
EXTT3=
EXTT4=
EXTT5=
EXTT6=
EXTT7=
EXTT8=
EXTT9=
EXTT10=
EXTT11=
EXTT12=
PLAYORDER=
